<svg width="124" height="124" viewBox="0 0 124 124" fill="none" xmlns="http://www.w3.org/2000/svg">
<path fill-rule="evenodd" clip-rule="evenodd" d="M62 108.5C68.1065 108.5 74.1531 107.297 79.7948 104.96C85.4364 102.624 90.5625 99.1984 94.8805 94.8805C99.1984 90.5625 102.624 85.4364 104.96 79.7948C107.297 74.1531 108.5 68.1065 108.5 62C108.5 55.8935 107.297 49.8469 104.96 44.2052C102.624 38.5636 99.1984 33.4375 94.8805 29.1195C90.5625 24.8016 85.4364 21.3764 79.7948 19.0396C74.1531 16.7028 68.1065 15.5 62 15.5C49.6674 15.5 37.84 20.3991 29.1195 29.1195C20.3991 37.84 15.5 49.6674 15.5 62C15.5 74.3326 20.3991 86.16 29.1195 94.8805C37.84 103.601 49.6674 108.5 62 108.5ZM60.8013 80.8067L86.6347 49.8067L78.6987 43.1933L56.482 69.8482L44.9862 58.3472L37.6805 65.6528L53.1805 81.1528L57.1795 85.1518L60.8013 80.8067Z" fill="white"/>
</svg>
